<?xml version="1.0" standalone="no"?>
<!DOCTYPE svg PUBLIC "-//W3C//DTD SVG 20010904//EN"
 "http://www.w3.org/TR/2001/REC-SVG-20010904/DTD/svg10.dtd">
<svg version="1.0" xmlns="http://www.w3.org/2000/svg"
 width="300.000000pt" height="75.000000pt" viewBox="0 0 300.000000 75.000000"
 preserveAspectRatio="xMidYMid meet">
<metadata>
Created by potrace 1.10, written by Peter Selinger 2001-2011
</metadata>
<g transform="translate(0.000000,75.000000) scale(0.100000,-0.100000)"
fill="#000000" stroke="none">
<path d="M1415 694 c-32 -16 -135 -113 -135 -126 0 -5 7 -11 15 -15 10 -3 38
16 80 56 62 60 88 71 129 55 24 -9 19 -21 -12 -27 -16 -3 -53 -32 -91 -72 -45
-47 -67 -63 -74 -56 -21 21 -82 12 -123 -18 -59 -43 -153 -146 -170 -186 -23
-55 -6 -90 85 -179 69 -67 83 -76 115 -76 50 0 81 18 145 83 48 50 59 77 29
77 -6 0 -39 -27 -74 -60 -61 -59 -87 -70 -128 -54 -24 9 -19 21 12 27 16 3 52
32 89 70 43 44 66 61 75 56 20 -13 76 -10 106 5 15 8 64 52 109 99 124 129
123 156 -10 285 -82 79 -110 88 -172 56z m161 -108 c14 -23 14 -28 0 -58 -9
-19 -40 -58 -69 -86 l-53 -52 -49 50 c-27 27 -43 50 -35 50 7 0 41 27 76 60
70 67 103 76 130 36z m74 -94 c0 -18 -24 -50 -87 -114 -89 -90 -114 -105 -158
-94 -33 9 -32 22 4 29 33 7 177 148 200 197 11 23 17 27 28 19 7 -6 13 -23 13
-37z m-336 -18 c20 -8 21 -24 1 -24 -9 0 -27 -7 -41 -16 -44 -29 -158 -154
-175 -191 -16 -35 -17 -35 -29 -14 -21 40 -2 75 89 165 88 86 110 97 155 80z
m81 -84 c25 -26 27 -32 15 -40 -26 -17 -64 -10 -95 16 -29 24 -29 25 -11 39
30 23 59 18 91 -15z m-89 -71 l42 -41 -64 -59 c-90 -84 -145 -91 -152 -19 -3
29 4 41 59 96 35 35 66 64 68 64 3 0 24 -18 47 -41z"/>
</g>
</svg>
